<?xml version="1.0" encoding="utf-8"?>
<!-- Generator: Adobe Illustrator 16.0.0, SVG Export Plug-In . SVG Version: 6.00 Build 0)  -->
<!DOCTYPE svg PUBLIC "-//W3C//DTD SVG 1.1//EN" "http://www.w3.org/Graphics/SVG/1.1/DTD/svg11.dtd">
<svg version="1.1" id="Layer_1" xmlns="http://www.w3.org/2000/svg" xmlns:xlink="http://www.w3.org/1999/xlink" x="0px" y="0px"
	 width="343.788px" height="97px" viewBox="0 0 343.788 97" enable-background="new 0 0 343.788 97" xml:space="preserve">
<g>
	<g>
		<linearGradient id="SVGID_1_" gradientUnits="userSpaceOnUse" x1="157.3647" y1="255.459" x2="157.3647" y2="330.2764">
			<stop  offset="0" style="stop-color:#2DBDB6"/>
			<stop  offset="1" style="stop-color:#189386"/>
		</linearGradient>
		<path fill="url(#SVGID_1_)" d="M303.093,255.459H11.64c-6.166,0-11.217,4.857-11.217,11.4v28.301v25.137v-1.42
			c0,6.545,5.051,11.399,11.217,11.399h291.453c6.168,0,11.215-4.854,11.215-11.399v1.42v-53.438
			C314.308,260.316,309.261,255.459,303.093,255.459z"/>
		<g>
			<path fill="#FFFFFF" d="M20.019,291.355c0-11.441,7.174-21.283,20.809-21.283c5.158,0,9.249,1.542,13.577,5.276
				c1.601,1.482,1.779,4.09,0.179,5.75c-1.603,1.423-4.032,1.246-5.455-0.179c-2.432-2.549-4.92-3.259-8.301-3.259
				c-9.13,0-13.516,6.462-13.516,13.694c0,7.352,4.328,14.11,13.516,14.11c3.381,0,6.521-1.364,9.249-3.795
				c1.837-1.424,4.387-0.712,5.454,0.712c0.949,1.304,1.424,3.498-0.653,5.573c-4.148,3.854-9.127,4.624-14.05,4.624
				C26.481,312.58,20.019,302.798,20.019,291.355z"/>
			<path fill="#FFFFFF" d="M59.915,312.164c-1.898-1.066-3.085-3.201-1.898-5.689l17.016-33.26c1.601-3.143,5.869-3.262,7.352,0
				l16.719,33.26c2.43,4.623-4.743,8.297-6.878,3.674l-2.608-5.217H67.739l-2.548,5.217
				C64.241,312.164,62.049,312.58,59.915,312.164z M85.408,297.105l-6.7-14.643l-7.294,14.643H85.408z"/>
			<path fill="#FFFFFF" d="M109.888,308.312c0,5.158-7.884,5.335-7.884,0.118v-33.675c0-2.073,1.6-3.616,3.558-3.616h15.769
				c15.058,0,18.142,20.157,5.573,25.197l7.885,9.604c3.082,4.566-3.082,8.953-6.642,4.446l-8.951-12.805h-9.308V308.312z
				 M109.888,290.762h11.442c7.707,0,8.182-12.449,0-12.449h-11.442V290.762z"/>
			<path fill="#FFFFFF" d="M146.168,308.312c0,5.158-7.886,5.335-7.886,0.118v-33.675c0-2.073,1.601-3.616,3.558-3.616h15.771
				c15.059,0,18.142,20.157,5.572,25.197l7.885,9.604c3.084,4.566-3.082,8.953-6.639,4.446l-8.953-12.805h-9.308V308.312z
				 M146.168,290.762h11.442c7.708,0,8.181-12.449,0-12.449h-11.442V290.762z"/>
			<path fill="#FFFFFF" d="M178.237,312.164c-2.074,0-3.674-1.6-3.674-3.676v-33.673c0-2.134,1.6-3.677,3.674-3.677h21.284
				c5.454,0,5.337,7.708,0,7.708h-17.074v8.893h14.94c5.276,0,5.276,7.767,0,7.767h-14.94v8.893h18.081c5.396,0,5.812,7.766,0,7.766
				H178.237z"/>
			<path fill="#FFFFFF" d="M207.58,274.697c0-4.862,7.827-5.041,7.827,0v33.852c0,4.921-7.827,5.038-7.827,0V274.697z"/>
			<path fill="#FFFFFF" d="M227.263,308.312c0,5.158-7.885,5.335-7.885,0.118v-33.675c0-2.073,1.6-3.616,3.557-3.616h15.771
				c15.058,0,18.14,20.157,5.572,25.197l7.886,9.604c3.081,4.566-3.083,8.953-6.641,4.446l-8.953-12.805h-9.307V308.312z
				 M227.263,290.762h11.442c7.706,0,8.181-12.449,0-12.449h-11.442V290.762z"/>
			<path fill="#FFFFFF" d="M256.843,312.164c-1.896-1.066-3.081-3.201-1.896-5.689l17.014-33.26c1.602-3.143,5.869-3.262,7.351,0
				l16.72,33.26c2.432,4.623-4.742,8.297-6.876,3.674l-2.61-5.217h-21.875l-2.55,5.217
				C261.171,312.164,258.979,312.58,256.843,312.164z M282.335,297.105l-6.699-14.643l-7.292,14.643H282.335z"/>
		</g>
		<g>
			<linearGradient id="SVGID_2_" gradientUnits="userSpaceOnUse" x1="315.8076" y1="290.1211" x2="315.8076" y2="234.4775">
				<stop  offset="0.2493" style="stop-color:#D8C800"/>
				<stop  offset="1" style="stop-color:#FFF200"/>
			</linearGradient>
			<path fill="url(#SVGID_2_)" d="M343.327,261.997c0-15.199-12.32-27.52-27.52-27.52s-27.52,12.32-27.52,27.52
				c0,1.928,0.207,3.804,0.584,5.62l-0.009,0.002c0.019,0.066,0.035,0.131,0.054,0.196c0.183,0.849,0.398,1.685,0.657,2.501
				c1.466,5.916,2.104,11.318,1.327,18.988c1.687,0.562,17.626,1.501,28.117,0.027c1.235-0.175,4.117-0.315,4.357-0.878
				C334.894,285.166,343.327,274.57,343.327,261.997z"/>
		</g>
		<g>
			<linearGradient id="SVGID_3_" gradientUnits="userSpaceOnUse" x1="306.876" y1="252.4805" x2="306.876" y2="273.3818">
				<stop  offset="0" style="stop-color:#26BCB3"/>
				<stop  offset="1" style="stop-color:#189386"/>
			</linearGradient>
			<path fill="url(#SVGID_3_)" d="M302.339,271.367c0,2.621-4.005,2.712-4.005,0.062v-17.11c0-1.055,0.813-1.838,1.806-1.838h8.015
				c7.65,0,9.218,10.241,2.831,12.804l4.007,4.879c1.565,2.319-1.566,4.548-3.374,2.259l-4.549-6.507h-4.73V271.367z
				 M302.339,262.451h5.815c3.915,0,4.157-6.325,0-6.325h-5.815V262.451z"/>
			<linearGradient id="SVGID_4_" gradientUnits="userSpaceOnUse" x1="325.0391" y1="252.4805" x2="325.0391" y2="273.3262">
				<stop  offset="0" style="stop-color:#26BCB3"/>
				<stop  offset="1" style="stop-color:#189386"/>
			</linearGradient>
			<path fill="url(#SVGID_4_)" d="M316.183,271.459v-17.111c0-1.084,0.783-1.867,2.14-1.867c1.055,0,1.837,0.783,1.837,1.867v6.566
				h9.822v-6.566c0-1.084,0.964-1.867,2.048-1.867c1.054,0,1.866,0.783,1.866,1.867v17.111c0,1.053-0.812,1.867-1.866,1.867
				c-1.084,0-2.048-0.814-2.048-1.867v-6.598h-9.822v6.598c0,1.053-0.782,1.867-1.837,1.867
				C316.966,273.326,316.183,272.512,316.183,271.459z"/>
		</g>
	</g>
	<g>
		<path fill="#0A9387" d="M303.062,135.134H11.609c-6.166,0-11.217,4.857-11.217,11.4v28.301v25.137v-1.42
			c0,6.545,5.051,11.399,11.217,11.399h291.453c6.168,0,11.215-4.854,11.215-11.399v1.42v-53.438
			C314.277,139.991,309.23,135.134,303.062,135.134z"/>
		<g>
			<path fill="#FFFFFF" d="M19.988,171.03c0-11.441,7.174-21.283,20.809-21.283c5.158,0,9.249,1.542,13.577,5.276
				c1.601,1.482,1.779,4.09,0.179,5.75c-1.603,1.423-4.032,1.246-5.455-0.179c-2.432-2.549-4.92-3.259-8.301-3.259
				c-9.13,0-13.516,6.462-13.516,13.694c0,7.352,4.328,14.11,13.516,14.11c3.381,0,6.521-1.364,9.249-3.795
				c1.837-1.424,4.387-0.712,5.454,0.712c0.949,1.304,1.424,3.498-0.653,5.573c-4.148,3.854-9.127,4.624-14.05,4.624
				C26.451,192.255,19.988,182.473,19.988,171.03z"/>
			<path fill="#FFFFFF" d="M59.885,191.839c-1.898-1.066-3.085-3.201-1.898-5.689l17.016-33.26c1.601-3.143,5.869-3.262,7.352,0
				l16.719,33.26c2.43,4.623-4.743,8.297-6.878,3.674l-2.608-5.217H67.709l-2.548,5.217
				C64.211,191.839,62.019,192.255,59.885,191.839z M85.378,176.78l-6.7-14.643l-7.294,14.643H85.378z"/>
			<path fill="#FFFFFF" d="M109.857,187.986c0,5.158-7.884,5.335-7.884,0.118V154.43c0-2.073,1.6-3.616,3.558-3.616H121.3
				c15.058,0,18.142,20.157,5.573,25.197l7.885,9.604c3.082,4.566-3.082,8.953-6.642,4.446l-8.951-12.805h-9.308V187.986z
				 M109.857,170.437H121.3c7.707,0,8.182-12.449,0-12.449h-11.442V170.437z"/>
			<path fill="#FFFFFF" d="M146.138,187.986c0,5.158-7.886,5.335-7.886,0.118V154.43c0-2.073,1.601-3.616,3.558-3.616h15.771
				c15.059,0,18.142,20.157,5.572,25.197l7.885,9.604c3.084,4.566-3.082,8.953-6.639,4.446l-8.953-12.805h-9.308V187.986z
				 M146.138,170.437h11.442c7.708,0,8.181-12.449,0-12.449h-11.442V170.437z"/>
			<path fill="#FFFFFF" d="M178.207,191.839c-2.074,0-3.674-1.6-3.674-3.676V154.49c0-2.134,1.6-3.677,3.674-3.677h21.284
				c5.454,0,5.337,7.708,0,7.708h-17.074v8.893h14.94c5.276,0,5.276,7.767,0,7.767h-14.94v8.893h18.081c5.396,0,5.812,7.766,0,7.766
				H178.207z"/>
			<path fill="#FFFFFF" d="M207.55,154.372c0-4.862,7.827-5.041,7.827,0v33.852c0,4.921-7.827,5.038-7.827,0V154.372z"/>
			<path fill="#FFFFFF" d="M227.232,187.986c0,5.158-7.885,5.335-7.885,0.118V154.43c0-2.073,1.6-3.616,3.557-3.616h15.771
				c15.058,0,18.14,20.157,5.572,25.197l7.886,9.604c3.081,4.566-3.083,8.953-6.641,4.446l-8.953-12.805h-9.307V187.986z
				 M227.232,170.437h11.442c7.706,0,8.181-12.449,0-12.449h-11.442V170.437z"/>
			<path fill="#FFFFFF" d="M256.812,191.839c-1.896-1.066-3.081-3.201-1.896-5.689l17.014-33.26c1.602-3.143,5.869-3.262,7.351,0
				l16.72,33.26c2.432,4.623-4.742,8.297-6.876,3.674l-2.61-5.217h-21.875l-2.55,5.217
				C261.141,191.839,258.948,192.255,256.812,191.839z M282.305,176.78l-6.699-14.643l-7.292,14.643H282.305z"/>
		</g>
		<g>
			<path fill="#FFF200" d="M343.297,141.672c0-15.199-12.32-27.52-27.52-27.52s-27.52,12.32-27.52,27.52
				c0,1.928,0.207,3.804,0.584,5.62l-0.009,0.002c0.019,0.066,0.035,0.131,0.054,0.196c0.183,0.849,0.398,1.685,0.657,2.501
				c1.466,5.916,2.104,11.318,1.327,18.988c1.687,0.562,17.626,1.501,28.117,0.027c1.235-0.175,4.117-0.315,4.357-0.878
				C334.863,164.841,343.297,154.245,343.297,141.672z"/>
		</g>
		<g>
			<linearGradient id="SVGID_5_" gradientUnits="userSpaceOnUse" x1="306.8447" y1="132.1553" x2="306.8447" y2="153.0566">
				<stop  offset="0" style="stop-color:#26BCB3"/>
				<stop  offset="1" style="stop-color:#189386"/>
			</linearGradient>
			<path fill="url(#SVGID_5_)" d="M302.309,151.042c0,2.621-4.005,2.712-4.005,0.062v-17.11c0-1.055,0.813-1.838,1.806-1.838h8.015
				c7.65,0,9.218,10.241,2.831,12.804l4.007,4.879c1.565,2.319-1.566,4.548-3.374,2.259l-4.549-6.507h-4.73V151.042z
				 M302.309,142.126h5.815c3.915,0,4.157-6.325,0-6.325h-5.815V142.126z"/>
			<linearGradient id="SVGID_6_" gradientUnits="userSpaceOnUse" x1="325.0088" y1="132.1553" x2="325.0088" y2="153.001">
				<stop  offset="0" style="stop-color:#26BCB3"/>
				<stop  offset="1" style="stop-color:#189386"/>
			</linearGradient>
			<path fill="url(#SVGID_6_)" d="M316.152,151.134v-17.111c0-1.084,0.783-1.867,2.14-1.867c1.055,0,1.837,0.783,1.837,1.867v6.566
				h9.822v-6.566c0-1.084,0.964-1.867,2.048-1.867c1.054,0,1.866,0.783,1.866,1.867v17.111c0,1.053-0.812,1.867-1.866,1.867
				c-1.084,0-2.048-0.814-2.048-1.867v-6.598h-9.822v6.598c0,1.053-0.782,1.867-1.837,1.867
				C316.936,153.001,316.152,152.187,316.152,151.134z"/>
		</g>
	</g>
	<path fill="#2DBDB6" d="M303.062,21.772H11.609c-6.166,0-11.217,4.857-11.217,11.4v28.301V86.61v-1.42
		c0,6.545,5.051,11.399,11.217,11.399h291.453c6.168,0,11.215-4.854,11.215-11.399v1.42V33.173
		C314.277,26.63,309.23,21.772,303.062,21.772z"/>
	<g>
		<path fill="#FFFFFF" d="M19.988,57.669c0-11.441,7.174-21.283,20.809-21.283c5.158,0,9.249,1.542,13.577,5.276
			c1.601,1.482,1.779,4.09,0.179,5.75c-1.603,1.423-4.032,1.246-5.455-0.179c-2.432-2.549-4.92-3.259-8.301-3.259
			c-9.13,0-13.516,6.462-13.516,13.694c0,7.352,4.328,14.11,13.516,14.11c3.381,0,6.521-1.364,9.249-3.795
			c1.837-1.424,4.387-0.712,5.454,0.712c0.949,1.304,1.424,3.498-0.653,5.573c-4.148,3.854-9.127,4.624-14.05,4.624
			C26.451,78.894,19.988,69.111,19.988,57.669z"/>
		<path fill="#FFFFFF" d="M59.885,78.478c-1.898-1.066-3.085-3.201-1.898-5.689l17.016-33.26c1.601-3.143,5.869-3.262,7.352,0
			l16.719,33.26c2.43,4.623-4.743,8.297-6.878,3.674l-2.608-5.217H67.709l-2.548,5.217C64.211,78.478,62.019,78.894,59.885,78.478z
			 M85.378,63.419l-6.7-14.643l-7.294,14.643H85.378z"/>
		<path fill="#FFFFFF" d="M109.857,74.625c0,5.158-7.884,5.335-7.884,0.118V41.068c0-2.073,1.6-3.616,3.558-3.616H121.3
			c15.058,0,18.142,20.157,5.573,25.197l7.885,9.604c3.082,4.566-3.082,8.953-6.642,4.446l-8.951-12.805h-9.308V74.625z
			 M109.857,57.075H121.3c7.707,0,8.182-12.449,0-12.449h-11.442V57.075z"/>
		<path fill="#FFFFFF" d="M146.138,74.625c0,5.158-7.886,5.335-7.886,0.118V41.068c0-2.073,1.601-3.616,3.558-3.616h15.771
			c15.059,0,18.142,20.157,5.572,25.197l7.885,9.604c3.084,4.566-3.082,8.953-6.639,4.446l-8.953-12.805h-9.308V74.625z
			 M146.138,57.075h11.442c7.708,0,8.181-12.449,0-12.449h-11.442V57.075z"/>
		<path fill="#FFFFFF" d="M178.207,78.478c-2.074,0-3.674-1.6-3.674-3.676V41.129c0-2.134,1.6-3.677,3.674-3.677h21.284
			c5.454,0,5.337,7.708,0,7.708h-17.074v8.893h14.94c5.276,0,5.276,7.767,0,7.767h-14.94v8.893h18.081c5.396,0,5.812,7.766,0,7.766
			H178.207z"/>
		<path fill="#FFFFFF" d="M207.55,41.011c0-4.862,7.827-5.041,7.827,0v33.852c0,4.921-7.827,5.038-7.827,0V41.011z"/>
		<path fill="#FFFFFF" d="M227.232,74.625c0,5.158-7.885,5.335-7.885,0.118V41.068c0-2.073,1.6-3.616,3.557-3.616h15.771
			c15.058,0,18.14,20.157,5.572,25.197l7.886,9.604c3.081,4.566-3.083,8.953-6.641,4.446l-8.953-12.805h-9.307V74.625z
			 M227.232,57.075h11.442c7.706,0,8.181-12.449,0-12.449h-11.442V57.075z"/>
		<path fill="#FFFFFF" d="M256.812,78.478c-1.896-1.066-3.081-3.201-1.896-5.689l17.014-33.26c1.602-3.143,5.869-3.262,7.351,0
			L296,72.788c2.432,4.623-4.742,8.297-6.876,3.674l-2.61-5.217h-21.875l-2.55,5.217C261.141,78.478,258.948,78.894,256.812,78.478z
			 M282.305,63.419l-6.699-14.643l-7.292,14.643H282.305z"/>
	</g>
	<g>
		<path fill="#FFF200" d="M343.297,28.311c0-15.199-12.32-27.52-27.52-27.52s-27.52,12.32-27.52,27.52
			c0,1.928,0.207,3.804,0.584,5.62l-0.009,0.002c0.019,0.066,0.035,0.131,0.054,0.196c0.183,0.849,0.398,1.685,0.657,2.501
			c1.466,5.916,2.104,11.318,1.327,18.988c1.687,0.562,17.626,1.501,28.117,0.027c1.235-0.175,4.117-0.315,4.357-0.878
			C334.863,51.479,343.297,40.884,343.297,28.311z"/>
	</g>
	<g>
		<linearGradient id="SVGID_7_" gradientUnits="userSpaceOnUse" x1="306.8447" y1="18.7939" x2="306.8447" y2="39.6953">
			<stop  offset="0" style="stop-color:#26BCB3"/>
			<stop  offset="1" style="stop-color:#189386"/>
		</linearGradient>
		<path fill="url(#SVGID_7_)" d="M302.309,37.681c0,2.621-4.005,2.712-4.005,0.062v-17.11c0-1.055,0.813-1.838,1.806-1.838h8.015
			c7.65,0,9.218,10.241,2.831,12.804l4.007,4.879c1.565,2.319-1.566,4.548-3.374,2.259l-4.549-6.507h-4.73V37.681z M302.309,28.765
			h5.815c3.915,0,4.157-6.325,0-6.325h-5.815V28.765z"/>
		<linearGradient id="SVGID_8_" gradientUnits="userSpaceOnUse" x1="325.0088" y1="18.7939" x2="325.0088" y2="39.6396">
			<stop  offset="0" style="stop-color:#26BCB3"/>
			<stop  offset="1" style="stop-color:#189386"/>
		</linearGradient>
		<path fill="url(#SVGID_8_)" d="M316.152,37.772V20.661c0-1.084,0.783-1.867,2.14-1.867c1.055,0,1.837,0.783,1.837,1.867v6.566
			h9.822v-6.566c0-1.084,0.964-1.867,2.048-1.867c1.054,0,1.866,0.783,1.866,1.867v17.111c0,1.053-0.812,1.867-1.866,1.867
			c-1.084,0-2.048-0.814-2.048-1.867v-6.598h-9.822v6.598c0,1.053-0.782,1.867-1.837,1.867
			C316.936,39.64,316.152,38.825,316.152,37.772z"/>
	</g>
</g>
</svg>
