<?xml version="1.0" encoding="utf-8"?>
<!-- Generator: Adobe Illustrator 21.0.0, SVG Export Plug-In . SVG Version: 6.00 Build 0)  -->
<svg version="1.1" id="Layer_1" xmlns="http://www.w3.org/2000/svg" xmlns:xlink="http://www.w3.org/1999/xlink" x="0px" y="0px"
	 viewBox="0 0 178.7 106" style="enable-background:new 0 0 178.7 106;" xml:space="preserve">
<style type="text/css">
	.st0{clip-path:url(#SVGID_2_);fill:#656565;}
</style>
<g>
	<defs>
		<rect id="SVGID_1_" width="178.7" height="106"/>
	</defs>
	<clipPath id="SVGID_2_">
		<use xlink:href="#SVGID_1_"  style="overflow:visible;"/>
	</clipPath>
	<path class="st0" d="M113.1,105.4L113.1,105.4C113.2,105.4,113.1,105.4,113.1,105.4 M28.8,105.4L28.8,105.4
		C28.8,105.4,28.8,105.4,28.8,105.4 M178.2,105.4L178.2,105.4C178.2,105.4,178.2,105.4,178.2,105.4 M149.5,105.4L149.5,105.4
		C149.5,105.4,149.5,105.4,149.5,105.4 M178.2,0.6L178.2,0.6C178.2,0.6,178.2,0.6,178.2,0.6 M149.5,0.6L149.5,0.6
		C149.5,0.6,149.5,0.6,149.5,0.6 M113.1,0.6L113.1,0.6C113.1,0.6,113.2,0.6,113.1,0.6 M84.4,0.6L84.4,0.6
		C84.4,0.6,84.4,0.6,84.4,0.6 M178.7,0.6V0h-10.2v0h-9.3c0,0,0,0,0,0h-10.2v0.6h0.5v0c0.1,0,0.5,0,2,0c6.3,0,7.6,1.5,7.8,6.6v45.3
		h-55.9V7.9h0c0-5.5,1.1-7.2,7.2-7.3l2,0c0.4,0,0.5,0,0.6,0v0l1.1,0V0H97.9H84.4v0.6v0c0.1,0,0.3,0,0.8,0l1.6,0
		c6.2,0.1,7.3,1.8,7.3,7.3v97.5c-0.2,0-0.4,0-0.8,0c-8.1,0-9.7-5-13.3-12.4c-11-23-17.7-36.8-45.7-39.9h5.8
		c15.9-0.1,38.1-3.8,38.1-27c0-26.5-30.6-26-38.5-26l0,0h-0.2h0C27.3,0,15.8,0,0,0v0.6v0c0.1,0,0.5,0,2,0c6.6,0,7.8,1.7,7.8,7.3
		v91.4c-0.2,4.5-1.6,6-7.2,6.1l-1.7,0c-0.5,0-0.7,0-0.8,0v0h0v0.6h0h15.3h15.2v-0.6l-1.8,0v0c0,0-0.1,0-0.4,0l-2.2,0
		c-6-0.1-7.1-1.9-7.1-7.3h0l0-45c3,0,3.2,0,6.7,0H27c8.5,0,16.2,1.8,21.8,6.2C64.3,71.5,65.1,106,91.1,106h1.2H97h17.7v-0.6l-1.6,0
		v0c-0.1,0-0.3,0-1.1,0l-1,0c-6.5,0-7.7-1.7-7.7-7.4h0V53h55.9v45.8c-0.1,5-1.5,6.6-7.8,6.6c-1.5,0-1.9,0-2,0v0h-0.5v0.6h0.5h14.4
		h14.8v-0.6h-0.5v0c-0.1,0-0.5,0-2,0c-6,0-7.5-1.4-7.7-5.9v-93c0.2-4.5,1.7-5.9,7.7-5.9c1.5,0,1.9,0,2,0v0H178.7z M19.1,52.5l0-44.7
		c0-5.3,1.1-7,6.9-7.2c2.6,0,5,0,5.3,0c2,0,3.3,0,4.4,0c0,0,0,0,0,0c22.7,0,33.5,9.2,33.5,25.6c0,15.5-11.8,26.3-29.1,26.3l-11.1,0
		c-0.7,0-1.4,0-1.9,0C27.1,52.5,26.3,52.5,19.1,52.5"/>
</g>
</svg>
